,
  Hottest scene tracker on the net !!!   http://www.scenetime.com
 
         Please seed back after your download is completed

           Credit goes  to all seeders and  http://www.scenetime.com
 



...................................NFO:.................................................                                                                                                     
       
     
     
       
       
     
     
                                         
                                         
                EXVID                    
                                         
         
                                         
         Filled the Archives             
                                         
         
                                         
                With:                    
                                         
         
                                         
                                    
     E240                           
                                    
     SP               (C) 2009      
                                         
     
     
     
                                                                                  
                                                                                   
                 Salt.2010.THEATRiCAL.DVDRip.XviD-EXViD                             
                                                                                   
                                                                                  
     
                                                                                               
EXViD aims to iNTERNAL those releases which have been lost in the archives.
EXViD aims to PRE non-internal releases which have poor sources and are likely skipped by others. 
http://www.imdb.com/title/tt0944835/
Subtitles: EN, DE, NL, HI, TR, EN HI
Date: 2010.12

Director:
Phillip Noyce

Genres:
Action | Crime | Mystery | Thriller

Plot:
Evelyn Salt is a CIA agent and highly respected by all, including her boss, Ted Winter.
Out of the blue, a Russian spy walks into their offices and offers a vital piece of information:
the President of Russia will be assassinated during his forthcoming visit to New York City to
attend the funeral of the recently deceased U.S. Vice President. The name of the assassin:
Evelyn Salt. Concerned about the safety of her husband, who she cannot contact, she goes on
the run. Winter refuses to accept that she is a mole or a double agent but her actions begin
to raise doubts. Just who is Evelyn Salt and what is she planning?

Cast
Credited cast:
Angelina Jolie  ...  Evelyn Salt  
Liev Schreiber  ...  Ted Winter  
Chiwetel Ejiofor  ...  Peabody  
Daniel Olbrychski  ...  Vassily Orlov  
August Diehl  ...  Mike Krause  
Daniel Pearce  ...  Young Orlov  
Hunt Block  ...  U.S. President Lewis  
Andre Braugher  ...  Secretary of Defense  
Olek Krupa  ...  Russian President Matveyev  
Cassidy Hinkle  ...  12-Year-Old Chenkov  
Corey Stoll  ...  Shnaider  
Vladislav Koulikov  ...  Chenkov's Father  
Olya Zueva  ...  Chenkov's Mother  
Kevin O'Donnell  ...  Young CIA Officer  
Gaius Charles  ...  CIA Officer  

Stats:
Format                           : AVI
Format/Info                      : Audio Video Interleave
File size                        : 700 MiB
Duration                         : 1h 36mn
Overall bit rate                 : 1 010 Kbps
Writing application              : VirtualDubMod 1.5.10.2 (build 2540/release)
Writing library                  : VirtualDubMod build 2540/release

Video
ID                               : 0
Format                           : MPEG-4 Visual
Format profile                   : Advanced Simple@L5
Format settings, BVOP            : Yes
Format settings, QPel            : No
Format settings, GMC             : No warppoints
Format settings, Matrix          : Default (H.263)
Muxing mode                      : Packed bitstream
Codec ID                         : XVID
Codec ID/Hint                    : XviD
Duration                         : 1h 36mn
Bit rate                         : 871 Kbps
Width                            : 624 pixels
Height                           : 256 pixels
Display aspect ratio             : 2.40:1
Frame rate                       : 25.000 fps
Color space                      : YUV
Chroma subsampling               : 4:2:0
Bit depth                        : 8 bits
Scan type                        : Progressive
Bits/(Pixel*Frame)               : 0.218
Stream size                      : 604 MiB (86%)
Writing library                  : XviD 1.2.1 (UTC 2008-12-04)

Audio
ID                               : 1
Format                           : MPEG Audio
Format version                   : Version 1
Format profile                   : Layer 3
Mode                             : Joint stereo
Mode extension                   : MS Stereo
Codec ID                         : 55
Codec ID/Hint                    : MP3
Duration                         : 1h 36mn
Bit rate mode                    : Variable
Bit rate                         : 128 Kbps
Channel(s)                       : 2 channels
Sampling rate                    : 48.0 KHz
Stream size                      : 87.8 MiB (13%)
Alignment                        : Aligned on interleaves
Interleave, duration             : 24 ms (0.60 video frame)
Interleave, preload duration     : 145 ms
Writing library                  : LAME3.90.
Encoding settings                : -m j -V 4 -q 2 -lowpass 17.6 --abr 128




Release notes:
On popular request.

Enjoy!

Looking for:
75TB+ Archives
DUTCH/FLEMiSH Archives
                                                                                                    
Greets: CRBS EPiSODE FiCO FLS iLS KLASSiGER LiPSYNC MADE NODLABS RUNNER TNAN       
   

                                                                    ASCII DONE BY XX^NFO 2oo9